<svg xmlns="http://www.w3.org/2000/svg" xmlns:xlink="http://www.w3.org/1999/xlink" width="500" zoomAndPan="magnify" viewBox="0 0 375 374.999991" height="500" preserveAspectRatio="xMidYMid meet" version="1.2"><defs><clipPath id="9abee2b8aa"><path d="M 69.984375 164.933594 L 114.21875 164.933594 L 114.21875 209.164062 L 69.984375 209.164062 Z M 69.984375 164.933594 "/></clipPath><clipPath id="925bf64685"><path d="M 92.101562 164.933594 C 79.886719 164.933594 69.984375 174.835938 69.984375 187.050781 C 69.984375 199.261719 79.886719 209.164062 92.101562 209.164062 C 104.316406 209.164062 114.21875 199.261719 114.21875 187.050781 C 114.21875 174.835938 104.316406 164.933594 92.101562 164.933594 Z M 92.101562 164.933594 "/></clipPath><clipPath id="0b8767a35c"><path d="M 79.480469 92.347656 L 104.722656 92.347656 L 104.722656 117.589844 L 79.480469 117.589844 Z M 79.480469 92.347656 "/></clipPath><clipPath id="d8910ef55a"><path d="M 92.101562 92.347656 C 85.128906 92.347656 79.480469 98 79.480469 104.96875 C 79.480469 111.941406 85.128906 117.589844 92.101562 117.589844 C 99.070312 117.589844 104.722656 111.941406 104.722656 104.96875 C 104.722656 98 99.070312 92.347656 92.101562 92.347656 Z M 92.101562 92.347656 "/></clipPath><clipPath id="865664aa8f"><path d="M 145 144 L 165 144 L 165 165 L 145 165 Z M 145 144 "/></clipPath><clipPath id="99344d7a84"><path d="M 158.632812 140.96875 L 168.5 158.054688 L 151.414062 167.917969 L 141.550781 150.832031 Z M 158.632812 140.96875 "/></clipPath><clipPath id="55e4928bd6"><path d="M 163.566406 149.511719 C 160.84375 144.792969 154.808594 143.175781 150.09375 145.898438 C 145.375 148.625 143.757812 154.65625 146.480469 159.375 C 149.207031 164.09375 155.238281 165.710938 159.957031 162.984375 C 164.675781 160.261719 166.289062 154.226562 163.566406 149.511719 Z M 163.566406 149.511719 "/></clipPath><clipPath id="b5d0a836ef"><path d="M 170 252 L 197 252 L 197 278 L 170 278 Z M 170 252 "/></clipPath><clipPath id="5950fa4972"><path d="M 201.363281 266.417969 L 182.027344 282.644531 L 165.800781 263.308594 L 185.140625 247.082031 Z M 201.363281 266.417969 "/></clipPath><clipPath id="ffb8d7cace"><path d="M 191.695312 274.53125 C 197.035156 270.050781 197.734375 262.089844 193.253906 256.75 C 188.769531 251.410156 180.808594 250.714844 175.46875 255.195312 C 170.128906 259.675781 169.433594 267.636719 173.914062 272.976562 C 178.394531 278.316406 186.355469 279.011719 191.695312 274.53125 Z M 191.695312 274.53125 "/></clipPath><clipPath id="f72523af75"><path d="M 17 143 L 39 143 L 39 166 L 17 166 Z M 17 143 "/></clipPath><clipPath id="f950526d94"><path d="M 31.621094 139.839844 L 42.3125 158.355469 L 23.792969 169.046875 L 13.101562 150.53125 Z M 31.621094 139.839844 "/></clipPath><clipPath id="a9ba82a960"><path d="M 36.964844 149.097656 C 34.011719 143.984375 27.476562 142.230469 22.359375 145.183594 C 17.246094 148.136719 15.496094 154.675781 18.449219 159.789062 C 21.398438 164.902344 27.9375 166.652344 33.050781 163.703125 C 38.167969 160.75 39.917969 154.210938 36.964844 149.097656 Z M 36.964844 149.097656 "/></clipPath><clipPath id="a338d02516"><path d="M 79.480469 255.199219 L 104.722656 255.199219 L 104.722656 280.445312 L 79.480469 280.445312 Z M 79.480469 255.199219 "/></clipPath><clipPath id="f11391818b"><path d="M 92.101562 255.199219 C 85.128906 255.199219 79.480469 260.851562 79.480469 267.824219 C 79.480469 274.792969 85.128906 280.445312 92.101562 280.445312 C 99.070312 280.445312 104.722656 274.792969 104.722656 267.824219 C 104.722656 260.851562 99.070312 255.199219 92.101562 255.199219 Z M 92.101562 255.199219 "/></clipPath><clipPath id="309c757cc8"><path d="M 15 226 L 41 226 L 41 252 L 15 252 Z M 15 226 "/></clipPath><clipPath id="9997ea3fa4"><path d="M 45.480469 240.523438 L 26.140625 256.75 L 9.914062 237.414062 L 29.253906 221.1875 Z M 45.480469 240.523438 "/></clipPath><clipPath id="665df5b1ae"><path d="M 35.8125 248.636719 C 41.152344 244.15625 41.847656 236.195312 37.367188 230.855469 C 32.886719 225.515625 24.925781 224.820312 19.585938 229.300781 C 14.246094 233.78125 13.546875 241.742188 18.027344 247.082031 C 22.507812 252.421875 30.472656 253.117188 35.8125 248.636719 Z M 35.8125 248.636719 "/></clipPath></defs><g id="0c7f4070b9"><rect x="0" width="375" y="0" height="374.999991" style="fill:#ffffff;fill-opacity:1;stroke:none;"/><rect x="0" width="375" y="0" height="374.999991" style="fill:#ffffff;fill-opacity:1;stroke:none;"/><g clip-rule="nonzero" clip-path="url(#9abee2b8aa)"><g clip-rule="nonzero" clip-path="url(#925bf64685)"><path style=" stroke:none;fill-rule:nonzero;fill:#e90129;fill-opacity:1;" d="M 69.984375 164.933594 L 114.21875 164.933594 L 114.21875 209.164062 L 69.984375 209.164062 Z M 69.984375 164.933594 "/></g></g><g clip-rule="nonzero" clip-path="url(#0b8767a35c)"><g clip-rule="nonzero" clip-path="url(#d8910ef55a)"><path style=" stroke:none;fill-rule:nonzero;fill:#e90129;fill-opacity:1;" d="M 79.480469 92.347656 L 104.722656 92.347656 L 104.722656 117.589844 L 79.480469 117.589844 Z M 79.480469 92.347656 "/></g></g><path style="fill:none;stroke-width:6;stroke-linecap:butt;stroke-linejoin:miter;stroke:#4875a6;stroke-opacity:1;stroke-miterlimit:4;" d="M 0.00224894 2.999142 L 65.813721 2.999142 " transform="matrix(0,0.719325,-0.719325,0,94.258921,117.592132)"/><path style="fill:none;stroke-width:6;stroke-linecap:butt;stroke-linejoin:miter;stroke:#4875a6;stroke-opacity:1;stroke-miterlimit:4;" d="M -0.00137986 2.999356 L 70.00239 2.999356 " transform="matrix(0,0.719325,-0.719325,0,94.259074,209.165055)"/><g clip-rule="nonzero" clip-path="url(#865664aa8f)"><g clip-rule="nonzero" clip-path="url(#99344d7a84)"><g clip-rule="nonzero" clip-path="url(#55e4928bd6)"><path style=" stroke:none;fill-rule:nonzero;fill:#e90129;fill-opacity:1;" d="M 158.632812 140.96875 L 168.5 158.054688 L 151.414062 167.917969 L 141.550781 150.832031 Z M 158.632812 140.96875 "/></g></g></g><path style="fill:none;stroke-width:6;stroke-linecap:butt;stroke-linejoin:miter;stroke:#4875a6;stroke-opacity:1;stroke-miterlimit:4;" d="M 0.00102793 2.998668 L 54.182344 3.000146 " transform="matrix(-0.62636,0.349033,-0.349033,-0.62636,147.527748,161.260698)"/><g clip-rule="nonzero" clip-path="url(#b5d0a836ef)"><g clip-rule="nonzero" clip-path="url(#5950fa4972)"><g clip-rule="nonzero" clip-path="url(#ffb8d7cace)"><path style=" stroke:none;fill-rule:nonzero;fill:#e90129;fill-opacity:1;" d="M 201.363281 266.417969 L 182.027344 282.644531 L 165.800781 263.308594 L 185.140625 247.082031 Z M 201.363281 266.417969 "/></g></g></g><path style="fill:none;stroke-width:6;stroke-linecap:butt;stroke-linejoin:miter;stroke:#4875a6;stroke-opacity:1;stroke-miterlimit:4;" d="M 0.00219331 3.000318 L 118.999711 2.999929 " transform="matrix(-0.562116,-0.448836,0.448836,-0.562116,174.135051,256.886731)"/><g clip-rule="nonzero" clip-path="url(#f72523af75)"><g clip-rule="nonzero" clip-path="url(#f950526d94)"><g clip-rule="nonzero" clip-path="url(#a9ba82a960)"><path style=" stroke:none;fill-rule:nonzero;fill:#e90129;fill-opacity:1;" d="M 31.621094 139.839844 L 42.3125 158.355469 L 23.792969 169.046875 L 13.101562 150.53125 Z M 31.621094 139.839844 "/></g></g></g><path style="fill:none;stroke-width:6;stroke-linecap:butt;stroke-linejoin:miter;stroke:#4875a6;stroke-opacity:1;stroke-miterlimit:4;" d="M 0.00129916 3.002211 L 54.963187 2.996947 " transform="matrix(0.622983,0.359613,-0.359613,0.622983,38.289762,157.48077)"/><g clip-rule="nonzero" clip-path="url(#a338d02516)"><g clip-rule="nonzero" clip-path="url(#f11391818b)"><path style=" stroke:none;fill-rule:nonzero;fill:#e90129;fill-opacity:1;" d="M 79.480469 255.199219 L 104.722656 255.199219 L 104.722656 280.445312 L 79.480469 280.445312 Z M 79.480469 255.199219 "/></g></g><path style="fill:none;stroke-width:6;stroke-linecap:butt;stroke-linejoin:miter;stroke:#4875a6;stroke-opacity:1;stroke-miterlimit:4;" d="M 0.000890864 2.998528 L 66.737779 3.001587 " transform="matrix(0.569322,-0.439661,0.439661,0.569322,36.060064,229.15264)"/><g clip-rule="nonzero" clip-path="url(#309c757cc8)"><g clip-rule="nonzero" clip-path="url(#9997ea3fa4)"><g clip-rule="nonzero" clip-path="url(#665df5b1ae)"><path style=" stroke:none;fill-rule:nonzero;fill:#e90129;fill-opacity:1;" d="M 45.480469 240.523438 L 26.140625 256.75 L 9.914062 237.414062 L 29.253906 221.1875 Z M 45.480469 240.523438 "/></g></g></g><g style="fill:#737373;fill-opacity:1;"><g transform="translate(201.378169, 145.461901)"><path style="stroke:none" d="M 9.640625 0.25 C 8.109375 0.25 6.742188 -0.0976562 5.546875 -0.796875 C 4.359375 -1.492188 3.425781 -2.515625 2.75 -3.859375 C 2.070312 -5.210938 1.734375 -6.832031 1.734375 -8.71875 C 1.734375 -10.601562 2.070312 -12.21875 2.75 -13.5625 C 3.425781 -14.914062 4.359375 -15.941406 5.546875 -16.640625 C 6.742188 -17.347656 8.109375 -17.703125 9.640625 -17.703125 C 11.273438 -17.703125 12.628906 -17.390625 13.703125 -16.765625 C 14.785156 -16.148438 15.566406 -15.222656 16.046875 -13.984375 L 14.734375 -13.109375 L 14.4375 -13.109375 C 13.957031 -14.109375 13.335938 -14.816406 12.578125 -15.234375 C 11.816406 -15.648438 10.835938 -15.859375 9.640625 -15.859375 C 8.546875 -15.859375 7.570312 -15.613281 6.71875 -15.125 C 5.863281 -14.632812 5.1875 -13.859375 4.6875 -12.796875 C 4.1875 -11.734375 3.9375 -10.375 3.9375 -8.71875 C 3.9375 -7.0625 4.1875 -5.703125 4.6875 -4.640625 C 5.1875 -3.585938 5.863281 -2.816406 6.71875 -2.328125 C 7.570312 -1.835938 8.546875 -1.59375 9.640625 -1.59375 C 10.898438 -1.59375 11.929688 -1.878906 12.734375 -2.453125 C 13.546875 -3.023438 14.144531 -3.945312 14.53125 -5.21875 L 14.828125 -5.21875 L 16.203125 -4.53125 C 15.785156 -2.988281 15.019531 -1.804688 13.90625 -0.984375 C 12.789062 -0.160156 11.367188 0.25 9.640625 0.25 Z M 9.640625 0.25 "/></g></g><g style="fill:#737373;fill-opacity:1;"><g transform="translate(218.479524, 145.461901)"><path style="stroke:none" d="M 5.234375 0.25 C 4.304688 0.25 3.578125 -0.015625 3.046875 -0.546875 C 2.515625 -1.078125 2.25 -1.863281 2.25 -2.90625 L 2.25 -18.453125 L 4.1875 -18.453125 L 4.1875 -3.046875 C 4.1875 -2.492188 4.289062 -2.09375 4.5 -1.84375 C 4.71875 -1.601562 5.046875 -1.484375 5.484375 -1.484375 C 5.753906 -1.484375 6.03125 -1.53125 6.3125 -1.625 L 6.484375 -1.578125 L 6.703125 -0.046875 C 6.554688 0.046875 6.347656 0.117188 6.078125 0.171875 C 5.816406 0.222656 5.535156 0.25 5.234375 0.25 Z M 5.234375 0.25 "/></g></g><g style="fill:#737373;fill-opacity:1;"><g transform="translate(225.634902, 145.461901)"><path style="stroke:none" d="M 6.5 0.25 C 5.007812 0.25 3.898438 -0.140625 3.171875 -0.921875 C 2.453125 -1.710938 2.09375 -2.867188 2.09375 -4.390625 L 2.09375 -13.15625 L 4.03125 -13.15625 L 4.03125 -4.4375 C 4.03125 -2.4375 4.96875 -1.4375 6.84375 -1.4375 C 8.039062 -1.4375 8.984375 -1.828125 9.671875 -2.609375 C 10.367188 -3.390625 10.71875 -4.65625 10.71875 -6.40625 L 10.71875 -13.15625 L 12.65625 -13.15625 L 12.65625 0 L 10.828125 0 L 10.828125 -2.0625 L 10.578125 -2.125 C 10.117188 -1.320312 9.570312 -0.722656 8.9375 -0.328125 C 8.3125 0.0546875 7.5 0.25 6.5 0.25 Z M 6.5 0.25 "/></g></g><g style="fill:#737373;fill-opacity:1;"><g transform="translate(240.577723, 145.461901)"><path style="stroke:none" d="M 6 0.25 C 5.175781 0.25 4.410156 0.140625 3.703125 -0.078125 C 3.003906 -0.296875 2.410156 -0.59375 1.921875 -0.96875 C 1.429688 -1.351562 1.085938 -1.785156 0.890625 -2.265625 L 2.046875 -3.453125 L 2.296875 -3.453125 C 2.722656 -2.804688 3.238281 -2.316406 3.84375 -1.984375 C 4.445312 -1.648438 5.164062 -1.484375 6 -1.484375 C 6.96875 -1.484375 7.703125 -1.671875 8.203125 -2.046875 C 8.710938 -2.429688 8.96875 -2.960938 8.96875 -3.640625 C 8.96875 -4.160156 8.8125 -4.585938 8.5 -4.921875 C 8.195312 -5.253906 7.707031 -5.507812 7.03125 -5.6875 L 4.8125 -6.234375 C 3.625 -6.515625 2.753906 -6.960938 2.203125 -7.578125 C 1.660156 -8.203125 1.390625 -8.972656 1.390625 -9.890625 C 1.390625 -10.609375 1.570312 -11.226562 1.9375 -11.75 C 2.3125 -12.28125 2.84375 -12.6875 3.53125 -12.96875 C 4.21875 -13.257812 5.035156 -13.40625 5.984375 -13.40625 C 7.191406 -13.40625 8.140625 -13.234375 8.828125 -12.890625 C 9.523438 -12.554688 10.070312 -12.085938 10.46875 -11.484375 L 9.359375 -10.421875 L 9.125 -10.421875 C 8.707031 -10.898438 8.25 -11.25 7.75 -11.46875 C 7.25 -11.6875 6.660156 -11.796875 5.984375 -11.796875 C 5.109375 -11.796875 4.441406 -11.640625 3.984375 -11.328125 C 3.523438 -11.015625 3.296875 -10.5625 3.296875 -9.96875 C 3.296875 -9.4375 3.457031 -9.007812 3.78125 -8.6875 C 4.101562 -8.363281 4.671875 -8.101562 5.484375 -7.90625 L 7.671875 -7.375 C 8.816406 -7.101562 9.644531 -6.648438 10.15625 -6.015625 C 10.664062 -5.390625 10.921875 -4.601562 10.921875 -3.65625 C 10.921875 -2.882812 10.738281 -2.203125 10.375 -1.609375 C 10.007812 -1.023438 9.453125 -0.566406 8.703125 -0.234375 C 7.960938 0.0859375 7.0625 0.25 6 0.25 Z M 6 0.25 "/></g></g><g style="fill:#737373;fill-opacity:1;"><g transform="translate(252.741867, 145.461901)"><path style="stroke:none" d="M 8.90625 -2.09375 L 9.515625 -0.6875 C 9.210938 -0.382812 8.804688 -0.15625 8.296875 0 C 7.796875 0.164062 7.25 0.25 6.65625 0.25 C 4.144531 0.25 2.890625 -1.019531 2.890625 -3.5625 L 2.890625 -11.578125 L 0.59375 -11.578125 L 0.59375 -13.171875 L 2.890625 -13.171875 L 2.890625 -15.953125 L 4.828125 -16.28125 L 4.828125 -13.171875 L 9.0625 -13.171875 L 9.0625 -11.578125 L 4.828125 -11.578125 L 4.828125 -3.765625 C 4.828125 -2.242188 5.484375 -1.484375 6.796875 -1.484375 C 7.515625 -1.484375 8.132812 -1.6875 8.65625 -2.09375 Z M 8.90625 -2.09375 "/></g></g><g style="fill:#737373;fill-opacity:1;"><g transform="translate(262.604316, 145.461901)"><path style="stroke:none" d="M 12.546875 -6.140625 L 3.5 -6.140625 C 3.550781 -4.535156 3.929688 -3.359375 4.640625 -2.609375 C 5.359375 -1.859375 6.335938 -1.484375 7.578125 -1.484375 C 8.515625 -1.484375 9.269531 -1.648438 9.84375 -1.984375 C 10.414062 -2.328125 10.863281 -2.851562 11.1875 -3.5625 L 11.4375 -3.5625 L 12.703125 -2.8125 C 12.328125 -1.863281 11.71875 -1.113281 10.875 -0.5625 C 10.039062 -0.0195312 8.941406 0.25 7.578125 0.25 C 6.304688 0.25 5.210938 0 4.296875 -0.5 C 3.378906 -1 2.671875 -1.757812 2.171875 -2.78125 C 1.679688 -3.800781 1.4375 -5.066406 1.4375 -6.578125 C 1.4375 -8.066406 1.695312 -9.320312 2.21875 -10.34375 C 2.738281 -11.375 3.453125 -12.140625 4.359375 -12.640625 C 5.265625 -13.148438 6.296875 -13.40625 7.453125 -13.40625 C 9.140625 -13.40625 10.457031 -12.929688 11.40625 -11.984375 C 12.351562 -11.035156 12.832031 -9.625 12.84375 -7.75 C 12.84375 -7.019531 12.828125 -6.53125 12.796875 -6.28125 Z M 10.921875 -7.75 C 10.890625 -9.15625 10.578125 -10.175781 9.984375 -10.8125 C 9.398438 -11.445312 8.554688 -11.765625 7.453125 -11.765625 C 6.304688 -11.765625 5.40625 -11.441406 4.75 -10.796875 C 4.09375 -10.160156 3.691406 -9.144531 3.546875 -7.75 Z M 10.921875 -7.75 "/></g></g><g style="fill:#737373;fill-opacity:1;"><g transform="translate(276.628858, 145.461901)"><path style="stroke:none" d="M 2.296875 0 L 2.296875 -13.15625 L 4.140625 -13.15625 L 4.140625 -11.09375 L 4.390625 -11.03125 C 5.003906 -12.53125 6.15625 -13.28125 7.84375 -13.28125 C 8.75 -13.28125 9.425781 -13.117188 9.875 -12.796875 L 9.359375 -11.140625 L 9.125 -11.09375 C 8.632812 -11.34375 8.09375 -11.46875 7.5 -11.46875 C 6.457031 -11.46875 5.648438 -11.070312 5.078125 -10.28125 C 4.515625 -9.5 4.234375 -8.222656 4.234375 -6.453125 L 4.234375 0 Z M 2.296875 0 "/></g></g><g style="fill:#737373;fill-opacity:1;"><g transform="translate(201.378169, 179.092373)"><path style="stroke:none" d="M 4.6875 0 L 2.640625 0 L 2.640625 -17.4375 L 4.6875 -17.4375 Z M 4.6875 0 "/></g></g><g style="fill:#737373;fill-opacity:1;"><g transform="translate(208.712437, 179.092373)"><path style="stroke:none" d="M 2.296875 0 L 2.296875 -13.15625 L 4.140625 -13.15625 L 4.140625 -11.09375 L 4.390625 -11.03125 C 4.828125 -11.800781 5.382812 -12.390625 6.0625 -12.796875 C 6.75 -13.203125 7.582031 -13.40625 8.5625 -13.40625 C 10.144531 -13.40625 11.289062 -13 12 -12.1875 C 12.707031 -11.382812 13.0625 -10.144531 13.0625 -8.46875 L 13.0625 0 L 11.125 0 L 11.125 -8.421875 C 11.125 -9.222656 11.019531 -9.863281 10.8125 -10.34375 C 10.613281 -10.820312 10.300781 -11.171875 9.875 -11.390625 C 9.445312 -11.609375 8.890625 -11.71875 8.203125 -11.71875 C 7.015625 -11.71875 6.054688 -11.320312 5.328125 -10.53125 C 4.597656 -9.75 4.234375 -8.488281 4.234375 -6.75 L 4.234375 0 Z M 2.296875 0 "/></g></g><g style="fill:#737373;fill-opacity:1;"><g transform="translate(223.762551, 179.092373)"><path style="stroke:none" d="M 2.9375 0 L 2.9375 -11.578125 L 0.640625 -11.578125 L 0.640625 -13.171875 L 2.9375 -13.171875 C 2.789062 -13.742188 2.71875 -14.289062 2.71875 -14.8125 C 2.71875 -15.65625 2.898438 -16.367188 3.265625 -16.953125 C 3.628906 -17.546875 4.128906 -17.984375 4.765625 -18.265625 C 5.410156 -18.554688 6.15625 -18.703125 7 -18.703125 C 8.3125 -18.703125 9.316406 -18.414062 10.015625 -17.84375 L 9.265625 -16.484375 L 9.015625 -16.4375 C 8.503906 -16.84375 7.832031 -17.046875 7 -17.046875 C 6.226562 -17.046875 5.644531 -16.847656 5.25 -16.453125 C 4.863281 -16.054688 4.671875 -15.492188 4.671875 -14.765625 C 4.671875 -14.304688 4.738281 -13.773438 4.875 -13.171875 L 9.0625 -13.171875 L 9.0625 -11.578125 L 4.875 -11.578125 L 4.875 0 Z M 2.9375 0 "/></g></g><g style="fill:#737373;fill-opacity:1;"><g transform="translate(233.136097, 179.092373)"><path style="stroke:none" d="M 2.296875 0 L 2.296875 -13.15625 L 4.140625 -13.15625 L 4.140625 -11.09375 L 4.390625 -11.03125 C 5.003906 -12.53125 6.15625 -13.28125 7.84375 -13.28125 C 8.75 -13.28125 9.425781 -13.117188 9.875 -12.796875 L 9.359375 -11.140625 L 9.125 -11.09375 C 8.632812 -11.34375 8.09375 -11.46875 7.5 -11.46875 C 6.457031 -11.46875 5.648438 -11.070312 5.078125 -10.28125 C 4.515625 -9.5 4.234375 -8.222656 4.234375 -6.453125 L 4.234375 0 Z M 2.296875 0 "/></g></g><g style="fill:#737373;fill-opacity:1;"><g transform="translate(243.046217, 179.092373)"><path style="stroke:none" d="M 5.421875 0.25 C 4.128906 0.25 3.117188 -0.0859375 2.390625 -0.765625 C 1.660156 -1.441406 1.296875 -2.40625 1.296875 -3.65625 C 1.296875 -4.4375 1.457031 -5.09375 1.78125 -5.625 C 2.101562 -6.164062 2.601562 -6.601562 3.28125 -6.9375 C 3.957031 -7.28125 4.84375 -7.546875 5.9375 -7.734375 C 6.882812 -7.890625 7.609375 -8.066406 8.109375 -8.265625 C 8.609375 -8.460938 8.941406 -8.6875 9.109375 -8.9375 C 9.273438 -9.1875 9.359375 -9.5 9.359375 -9.875 C 9.359375 -10.46875 9.15625 -10.921875 8.75 -11.234375 C 8.34375 -11.554688 7.6875 -11.71875 6.78125 -11.71875 C 5.925781 -11.71875 5.191406 -11.550781 4.578125 -11.21875 C 3.972656 -10.894531 3.414062 -10.40625 2.90625 -9.75 L 2.671875 -9.75 L 1.71875 -11.09375 C 2.269531 -11.800781 2.972656 -12.363281 3.828125 -12.78125 C 4.691406 -13.195312 5.675781 -13.40625 6.78125 -13.40625 C 8.332031 -13.40625 9.472656 -13.066406 10.203125 -12.390625 C 10.941406 -11.710938 11.3125 -10.769531 11.3125 -9.5625 L 11.3125 -2.59375 C 11.3125 -1.851562 11.625 -1.484375 12.25 -1.484375 C 12.445312 -1.484375 12.644531 -1.519531 12.84375 -1.59375 L 13 -1.546875 L 13.234375 -0.203125 C 13.085938 -0.109375 12.894531 -0.0351562 12.65625 0.015625 C 12.425781 0.0664062 12.1875 0.09375 11.9375 0.09375 C 11.21875 0.09375 10.671875 -0.0625 10.296875 -0.375 C 9.929688 -0.695312 9.695312 -1.171875 9.59375 -1.796875 L 9.34375 -1.8125 C 8.96875 -1.125 8.460938 -0.609375 7.828125 -0.265625 C 7.191406 0.078125 6.390625 0.25 5.421875 0.25 Z M 5.859375 -1.296875 C 6.585938 -1.296875 7.21875 -1.460938 7.75 -1.796875 C 8.289062 -2.140625 8.703125 -2.617188 8.984375 -3.234375 C 9.273438 -3.847656 9.421875 -4.554688 9.421875 -5.359375 L 9.421875 -7.03125 L 9.203125 -7.078125 C 8.910156 -6.867188 8.550781 -6.691406 8.125 -6.546875 C 7.707031 -6.410156 7.117188 -6.289062 6.359375 -6.1875 C 5.597656 -6.082031 4.988281 -5.921875 4.53125 -5.703125 C 4.082031 -5.484375 3.765625 -5.207031 3.578125 -4.875 C 3.390625 -4.550781 3.296875 -4.144531 3.296875 -3.65625 C 3.296875 -2.882812 3.519531 -2.296875 3.96875 -1.890625 C 4.425781 -1.492188 5.054688 -1.296875 5.859375 -1.296875 Z M 5.859375 -1.296875 "/></g></g><g style="fill:#737373;fill-opacity:1;"><g transform="translate(256.653367, 179.092373)"><path style="stroke:none" d="M 6 0.25 C 5.175781 0.25 4.410156 0.140625 3.703125 -0.078125 C 3.003906 -0.296875 2.410156 -0.59375 1.921875 -0.96875 C 1.429688 -1.351562 1.085938 -1.785156 0.890625 -2.265625 L 2.046875 -3.453125 L 2.296875 -3.453125 C 2.722656 -2.804688 3.238281 -2.316406 3.84375 -1.984375 C 4.445312 -1.648438 5.164062 -1.484375 6 -1.484375 C 6.96875 -1.484375 7.703125 -1.671875 8.203125 -2.046875 C 8.710938 -2.429688 8.96875 -2.960938 8.96875 -3.640625 C 8.96875 -4.160156 8.8125 -4.585938 8.5 -4.921875 C 8.195312 -5.253906 7.707031 -5.507812 7.03125 -5.6875 L 4.8125 -6.234375 C 3.625 -6.515625 2.753906 -6.960938 2.203125 -7.578125 C 1.660156 -8.203125 1.390625 -8.972656 1.390625 -9.890625 C 1.390625 -10.609375 1.570312 -11.226562 1.9375 -11.75 C 2.3125 -12.28125 2.84375 -12.6875 3.53125 -12.96875 C 4.21875 -13.257812 5.035156 -13.40625 5.984375 -13.40625 C 7.191406 -13.40625 8.140625 -13.234375 8.828125 -12.890625 C 9.523438 -12.554688 10.070312 -12.085938 10.46875 -11.484375 L 9.359375 -10.421875 L 9.125 -10.421875 C 8.707031 -10.898438 8.25 -11.25 7.75 -11.46875 C 7.25 -11.6875 6.660156 -11.796875 5.984375 -11.796875 C 5.109375 -11.796875 4.441406 -11.640625 3.984375 -11.328125 C 3.523438 -11.015625 3.296875 -10.5625 3.296875 -9.96875 C 3.296875 -9.4375 3.457031 -9.007812 3.78125 -8.6875 C 4.101562 -8.363281 4.671875 -8.101562 5.484375 -7.90625 L 7.671875 -7.375 C 8.816406 -7.101562 9.644531 -6.648438 10.15625 -6.015625 C 10.664062 -5.390625 10.921875 -4.601562 10.921875 -3.65625 C 10.921875 -2.882812 10.738281 -2.203125 10.375 -1.609375 C 10.007812 -1.023438 9.453125 -0.566406 8.703125 -0.234375 C 7.960938 0.0859375 7.0625 0.25 6 0.25 Z M 6 0.25 "/></g></g><g style="fill:#737373;fill-opacity:1;"><g transform="translate(268.817511, 179.092373)"><path style="stroke:none" d="M 8.90625 -2.09375 L 9.515625 -0.6875 C 9.210938 -0.382812 8.804688 -0.15625 8.296875 0 C 7.796875 0.164062 7.25 0.25 6.65625 0.25 C 4.144531 0.25 2.890625 -1.019531 2.890625 -3.5625 L 2.890625 -11.578125 L 0.59375 -11.578125 L 0.59375 -13.171875 L 2.890625 -13.171875 L 2.890625 -15.953125 L 4.828125 -16.28125 L 4.828125 -13.171875 L 9.0625 -13.171875 L 9.0625 -11.578125 L 4.828125 -11.578125 L 4.828125 -3.765625 C 4.828125 -2.242188 5.484375 -1.484375 6.796875 -1.484375 C 7.515625 -1.484375 8.132812 -1.6875 8.65625 -2.09375 Z M 8.90625 -2.09375 "/></g></g><g style="fill:#737373;fill-opacity:1;"><g transform="translate(278.835041, 179.092373)"><path style="stroke:none" d="M 2.296875 0 L 2.296875 -13.15625 L 4.140625 -13.15625 L 4.140625 -11.09375 L 4.390625 -11.03125 C 5.003906 -12.53125 6.15625 -13.28125 7.84375 -13.28125 C 8.75 -13.28125 9.425781 -13.117188 9.875 -12.796875 L 9.359375 -11.140625 L 9.125 -11.09375 C 8.632812 -11.34375 8.09375 -11.46875 7.5 -11.46875 C 6.457031 -11.46875 5.648438 -11.070312 5.078125 -10.28125 C 4.515625 -9.5 4.234375 -8.222656 4.234375 -6.453125 L 4.234375 0 Z M 2.296875 0 "/></g></g><g style="fill:#737373;fill-opacity:1;"><g transform="translate(288.995679, 179.092373)"><path style="stroke:none" d="M 6.5 0.25 C 5.007812 0.25 3.898438 -0.140625 3.171875 -0.921875 C 2.453125 -1.710938 2.09375 -2.867188 2.09375 -4.390625 L 2.09375 -13.15625 L 4.03125 -13.15625 L 4.03125 -4.4375 C 4.03125 -2.4375 4.96875 -1.4375 6.84375 -1.4375 C 8.039062 -1.4375 8.984375 -1.828125 9.671875 -2.609375 C 10.367188 -3.390625 10.71875 -4.65625 10.71875 -6.40625 L 10.71875 -13.15625 L 12.65625 -13.15625 L 12.65625 0 L 10.828125 0 L 10.828125 -2.0625 L 10.578125 -2.125 C 10.117188 -1.320312 9.570312 -0.722656 8.9375 -0.328125 C 8.3125 0.0546875 7.5 0.25 6.5 0.25 Z M 6.5 0.25 "/></g></g><g style="fill:#737373;fill-opacity:1;"><g transform="translate(303.9385, 179.092373)"><path style="stroke:none" d="M 7.546875 0.25 C 6.390625 0.25 5.347656 -0.015625 4.421875 -0.546875 C 3.503906 -1.078125 2.773438 -1.851562 2.234375 -2.875 C 1.703125 -3.90625 1.4375 -5.140625 1.4375 -6.578125 C 1.4375 -8.015625 1.703125 -9.25 2.234375 -10.28125 C 2.773438 -11.3125 3.503906 -12.085938 4.421875 -12.609375 C 5.347656 -13.140625 6.390625 -13.40625 7.546875 -13.40625 C 8.941406 -13.40625 10.050781 -13.144531 10.875 -12.625 C 11.695312 -12.101562 12.289062 -11.40625 12.65625 -10.53125 L 11.328125 -9.5625 L 11.09375 -9.5625 C 10.738281 -10.289062 10.28125 -10.820312 9.71875 -11.15625 C 9.15625 -11.5 8.429688 -11.671875 7.546875 -11.671875 C 6.742188 -11.671875 6.035156 -11.476562 5.421875 -11.09375 C 4.804688 -10.71875 4.328125 -10.144531 3.984375 -9.375 C 3.648438 -8.613281 3.484375 -7.679688 3.484375 -6.578125 C 3.484375 -5.472656 3.65625 -4.539062 4 -3.78125 C 4.34375 -3.03125 4.816406 -2.457031 5.421875 -2.0625 C 6.035156 -1.675781 6.742188 -1.484375 7.546875 -1.484375 C 8.460938 -1.484375 9.222656 -1.691406 9.828125 -2.109375 C 10.429688 -2.523438 10.898438 -3.175781 11.234375 -4.0625 L 11.484375 -4.0625 L 12.765625 -3.3125 C 12.421875 -2.207031 11.8125 -1.335938 10.9375 -0.703125 C 10.0625 -0.0664062 8.929688 0.25 7.546875 0.25 Z M 7.546875 0.25 "/></g></g><g style="fill:#737373;fill-opacity:1;"><g transform="translate(317.497947, 179.092373)"><path style="stroke:none" d="M 8.90625 -2.09375 L 9.515625 -0.6875 C 9.210938 -0.382812 8.804688 -0.15625 8.296875 0 C 7.796875 0.164062 7.25 0.25 6.65625 0.25 C 4.144531 0.25 2.890625 -1.019531 2.890625 -3.5625 L 2.890625 -11.578125 L 0.59375 -11.578125 L 0.59375 -13.171875 L 2.890625 -13.171875 L 2.890625 -15.953125 L 4.828125 -16.28125 L 4.828125 -13.171875 L 9.0625 -13.171875 L 9.0625 -11.578125 L 4.828125 -11.578125 L 4.828125 -3.765625 C 4.828125 -2.242188 5.484375 -1.484375 6.796875 -1.484375 C 7.515625 -1.484375 8.132812 -1.6875 8.65625 -2.09375 Z M 8.90625 -2.09375 "/></g></g><g style="fill:#737373;fill-opacity:1;"><g transform="translate(327.515477, 179.092373)"><path style="stroke:none" d="M 6.5 0.25 C 5.007812 0.25 3.898438 -0.140625 3.171875 -0.921875 C 2.453125 -1.710938 2.09375 -2.867188 2.09375 -4.390625 L 2.09375 -13.15625 L 4.03125 -13.15625 L 4.03125 -4.4375 C 4.03125 -2.4375 4.96875 -1.4375 6.84375 -1.4375 C 8.039062 -1.4375 8.984375 -1.828125 9.671875 -2.609375 C 10.367188 -3.390625 10.71875 -4.65625 10.71875 -6.40625 L 10.71875 -13.15625 L 12.65625 -13.15625 L 12.65625 0 L 10.828125 0 L 10.828125 -2.0625 L 10.578125 -2.125 C 10.117188 -1.320312 9.570312 -0.722656 8.9375 -0.328125 C 8.3125 0.0546875 7.5 0.25 6.5 0.25 Z M 6.5 0.25 "/></g></g><g style="fill:#737373;fill-opacity:1;"><g transform="translate(342.458298, 179.092373)"><path style="stroke:none" d="M 2.296875 0 L 2.296875 -13.15625 L 4.140625 -13.15625 L 4.140625 -11.09375 L 4.390625 -11.03125 C 5.003906 -12.53125 6.15625 -13.28125 7.84375 -13.28125 C 8.75 -13.28125 9.425781 -13.117188 9.875 -12.796875 L 9.359375 -11.140625 L 9.125 -11.09375 C 8.632812 -11.34375 8.09375 -11.46875 7.5 -11.46875 C 6.457031 -11.46875 5.648438 -11.070312 5.078125 -10.28125 C 4.515625 -9.5 4.234375 -8.222656 4.234375 -6.453125 L 4.234375 0 Z M 2.296875 0 "/></g></g><g style="fill:#737373;fill-opacity:1;"><g transform="translate(352.272991, 179.092373)"><path style="stroke:none" d="M 12.546875 -6.140625 L 3.5 -6.140625 C 3.550781 -4.535156 3.929688 -3.359375 4.640625 -2.609375 C 5.359375 -1.859375 6.335938 -1.484375 7.578125 -1.484375 C 8.515625 -1.484375 9.269531 -1.648438 9.84375 -1.984375 C 10.414062 -2.328125 10.863281 -2.851562 11.1875 -3.5625 L 11.4375 -3.5625 L 12.703125 -2.8125 C 12.328125 -1.863281 11.71875 -1.113281 10.875 -0.5625 C 10.039062 -0.0195312 8.941406 0.25 7.578125 0.25 C 6.304688 0.25 5.210938 0 4.296875 -0.5 C 3.378906 -1 2.671875 -1.757812 2.171875 -2.78125 C 1.679688 -3.800781 1.4375 -5.066406 1.4375 -6.578125 C 1.4375 -8.066406 1.695312 -9.320312 2.21875 -10.34375 C 2.738281 -11.375 3.453125 -12.140625 4.359375 -12.640625 C 5.265625 -13.148438 6.296875 -13.40625 7.453125 -13.40625 C 9.140625 -13.40625 10.457031 -12.929688 11.40625 -11.984375 C 12.351562 -11.035156 12.832031 -9.625 12.84375 -7.75 C 12.84375 -7.019531 12.828125 -6.53125 12.796875 -6.28125 Z M 10.921875 -7.75 C 10.890625 -9.15625 10.578125 -10.175781 9.984375 -10.8125 C 9.398438 -11.445312 8.554688 -11.765625 7.453125 -11.765625 C 6.304688 -11.765625 5.40625 -11.441406 4.75 -10.796875 C 4.09375 -10.160156 3.691406 -9.144531 3.546875 -7.75 Z M 10.921875 -7.75 "/></g></g><g style="fill:#737373;fill-opacity:1;"><g transform="translate(201.378169, 212.722845)"><path style="stroke:none" d="M 15.703125 0 L 13.5 0 L 11.890625 -4.78125 L 4.46875 -4.78125 L 2.84375 0 L 0.6875 0 L 6.78125 -17.4375 L 9.625 -17.4375 Z M 8.03125 -15.328125 L 5.03125 -6.5 L 11.3125 -6.5 L 8.328125 -15.328125 Z M 8.03125 -15.328125 "/></g></g><g style="fill:#737373;fill-opacity:1;"><g transform="translate(217.763986, 212.722845)"><path style="stroke:none" d="M 6 0.25 C 5.175781 0.25 4.410156 0.140625 3.703125 -0.078125 C 3.003906 -0.296875 2.410156 -0.59375 1.921875 -0.96875 C 1.429688 -1.351562 1.085938 -1.785156 0.890625 -2.265625 L 2.046875 -3.453125 L 2.296875 -3.453125 C 2.722656 -2.804688 3.238281 -2.316406 3.84375 -1.984375 C 4.445312 -1.648438 5.164062 -1.484375 6 -1.484375 C 6.96875 -1.484375 7.703125 -1.671875 8.203125 -2.046875 C 8.710938 -2.429688 8.96875 -2.960938 8.96875 -3.640625 C 8.96875 -4.160156 8.8125 -4.585938 8.5 -4.921875 C 8.195312 -5.253906 7.707031 -5.507812 7.03125 -5.6875 L 4.8125 -6.234375 C 3.625 -6.515625 2.753906 -6.960938 2.203125 -7.578125 C 1.660156 -8.203125 1.390625 -8.972656 1.390625 -9.890625 C 1.390625 -10.609375 1.570312 -11.226562 1.9375 -11.75 C 2.3125 -12.28125 2.84375 -12.6875 3.53125 -12.96875 C 4.21875 -13.257812 5.035156 -13.40625 5.984375 -13.40625 C 7.191406 -13.40625 8.140625 -13.234375 8.828125 -12.890625 C 9.523438 -12.554688 10.070312 -12.085938 10.46875 -11.484375 L 9.359375 -10.421875 L 9.125 -10.421875 C 8.707031 -10.898438 8.25 -11.25 7.75 -11.46875 C 7.25 -11.6875 6.660156 -11.796875 5.984375 -11.796875 C 5.109375 -11.796875 4.441406 -11.640625 3.984375 -11.328125 C 3.523438 -11.015625 3.296875 -10.5625 3.296875 -9.96875 C 3.296875 -9.4375 3.457031 -9.007812 3.78125 -8.6875 C 4.101562 -8.363281 4.671875 -8.101562 5.484375 -7.90625 L 7.671875 -7.375 C 8.816406 -7.101562 9.644531 -6.648438 10.15625 -6.015625 C 10.664062 -5.390625 10.921875 -4.601562 10.921875 -3.65625 C 10.921875 -2.882812 10.738281 -2.203125 10.375 -1.609375 C 10.007812 -1.023438 9.453125 -0.566406 8.703125 -0.234375 C 7.960938 0.0859375 7.0625 0.25 6 0.25 Z M 6 0.25 "/></g></g><g style="fill:#737373;fill-opacity:1;"><g transform="translate(229.92813, 212.722845)"><path style="stroke:none" d=""/></g></g><g style="fill:#737373;fill-opacity:1;"><g transform="translate(235.914796, 212.722845)"><path style="stroke:none" d="M 15.703125 0 L 13.5 0 L 11.890625 -4.78125 L 4.46875 -4.78125 L 2.84375 0 L 0.6875 0 L 6.78125 -17.4375 L 9.625 -17.4375 Z M 8.03125 -15.328125 L 5.03125 -6.5 L 11.3125 -6.5 L 8.328125 -15.328125 Z M 8.03125 -15.328125 "/></g></g><g style="fill:#737373;fill-opacity:1;"><g transform="translate(201.378169, 246.353317)"><path style="stroke:none" d="M 9.171875 0.25 C 7.710938 0.25 6.421875 -0.0820312 5.296875 -0.75 C 4.179688 -1.414062 3.304688 -2.421875 2.671875 -3.765625 C 2.046875 -5.109375 1.734375 -6.757812 1.734375 -8.71875 C 1.734375 -10.675781 2.070312 -12.328125 2.75 -13.671875 C 3.425781 -15.015625 4.359375 -16.019531 5.546875 -16.6875 C 6.742188 -17.363281 8.117188 -17.703125 9.671875 -17.703125 C 11.347656 -17.703125 12.722656 -17.398438 13.796875 -16.796875 C 14.867188 -16.191406 15.628906 -15.296875 16.078125 -14.109375 L 14.734375 -13.3125 L 14.4375 -13.3125 C 13.988281 -14.21875 13.375 -14.867188 12.59375 -15.265625 C 11.820312 -15.660156 10.847656 -15.859375 9.671875 -15.859375 C 5.847656 -15.859375 3.9375 -13.476562 3.9375 -8.71875 C 3.9375 -6.25 4.414062 -4.441406 5.375 -3.296875 C 6.34375 -2.160156 7.691406 -1.59375 9.421875 -1.59375 C 11.015625 -1.59375 12.207031 -1.953125 13 -2.671875 C 13.789062 -3.398438 14.1875 -4.546875 14.1875 -6.109375 L 14.1875 -7.65625 L 9.21875 -7.65625 L 9.21875 -9.296875 L 16.1875 -9.296875 L 16.1875 0 L 14.28125 0 L 14.28125 -2.34375 L 14.03125 -2.390625 C 13.570312 -1.492188 12.929688 -0.828125 12.109375 -0.390625 C 11.285156 0.0351562 10.304688 0.25 9.171875 0.25 Z M 9.171875 0.25 "/></g></g><g style="fill:#737373;fill-opacity:1;"><g transform="translate(219.505128, 246.353317)"><path style="stroke:none" d="M 2.296875 0 L 2.296875 -13.15625 L 4.140625 -13.15625 L 4.140625 -11.09375 L 4.390625 -11.03125 C 5.003906 -12.53125 6.15625 -13.28125 7.84375 -13.28125 C 8.75 -13.28125 9.425781 -13.117188 9.875 -12.796875 L 9.359375 -11.140625 L 9.125 -11.09375 C 8.632812 -11.34375 8.09375 -11.46875 7.5 -11.46875 C 6.457031 -11.46875 5.648438 -11.070312 5.078125 -10.28125 C 4.515625 -9.5 4.234375 -8.222656 4.234375 -6.453125 L 4.234375 0 Z M 2.296875 0 "/></g></g><g style="fill:#737373;fill-opacity:1;"><g transform="translate(229.415247, 246.353317)"><path style="stroke:none" d="M 5.421875 0.25 C 4.128906 0.25 3.117188 -0.0859375 2.390625 -0.765625 C 1.660156 -1.441406 1.296875 -2.40625 1.296875 -3.65625 C 1.296875 -4.4375 1.457031 -5.09375 1.78125 -5.625 C 2.101562 -6.164062 2.601562 -6.601562 3.28125 -6.9375 C 3.957031 -7.28125 4.84375 -7.546875 5.9375 -7.734375 C 6.882812 -7.890625 7.609375 -8.066406 8.109375 -8.265625 C 8.609375 -8.460938 8.941406 -8.6875 9.109375 -8.9375 C 9.273438 -9.1875 9.359375 -9.5 9.359375 -9.875 C 9.359375 -10.46875 9.15625 -10.921875 8.75 -11.234375 C 8.34375 -11.554688 7.6875 -11.71875 6.78125 -11.71875 C 5.925781 -11.71875 5.191406 -11.550781 4.578125 -11.21875 C 3.972656 -10.894531 3.414062 -10.40625 2.90625 -9.75 L 2.671875 -9.75 L 1.71875 -11.09375 C 2.269531 -11.800781 2.972656 -12.363281 3.828125 -12.78125 C 4.691406 -13.195312 5.675781 -13.40625 6.78125 -13.40625 C 8.332031 -13.40625 9.472656 -13.066406 10.203125 -12.390625 C 10.941406 -11.710938 11.3125 -10.769531 11.3125 -9.5625 L 11.3125 -2.59375 C 11.3125 -1.851562 11.625 -1.484375 12.25 -1.484375 C 12.445312 -1.484375 12.644531 -1.519531 12.84375 -1.59375 L 13 -1.546875 L 13.234375 -0.203125 C 13.085938 -0.109375 12.894531 -0.0351562 12.65625 0.015625 C 12.425781 0.0664062 12.1875 0.09375 11.9375 0.09375 C 11.21875 0.09375 10.671875 -0.0625 10.296875 -0.375 C 9.929688 -0.695312 9.695312 -1.171875 9.59375 -1.796875 L 9.34375 -1.8125 C 8.96875 -1.125 8.460938 -0.609375 7.828125 -0.265625 C 7.191406 0.078125 6.390625 0.25 5.421875 0.25 Z M 5.859375 -1.296875 C 6.585938 -1.296875 7.21875 -1.460938 7.75 -1.796875 C 8.289062 -2.140625 8.703125 -2.617188 8.984375 -3.234375 C 9.273438 -3.847656 9.421875 -4.554688 9.421875 -5.359375 L 9.421875 -7.03125 L 9.203125 -7.078125 C 8.910156 -6.867188 8.550781 -6.691406 8.125 -6.546875 C 7.707031 -6.410156 7.117188 -6.289062 6.359375 -6.1875 C 5.597656 -6.082031 4.988281 -5.921875 4.53125 -5.703125 C 4.082031 -5.484375 3.765625 -5.207031 3.578125 -4.875 C 3.390625 -4.550781 3.296875 -4.144531 3.296875 -3.65625 C 3.296875 -2.882812 3.519531 -2.296875 3.96875 -1.890625 C 4.425781 -1.492188 5.054688 -1.296875 5.859375 -1.296875 Z M 5.859375 -1.296875 "/></g></g><g style="fill:#737373;fill-opacity:1;"><g transform="translate(243.022397, 246.353317)"><path style="stroke:none" d="M 2.296875 5.328125 L 2.296875 -13.15625 L 4.234375 -13.15625 L 4.234375 -11.1875 L 4.484375 -11.140625 C 5.460938 -12.648438 6.898438 -13.40625 8.796875 -13.40625 C 9.890625 -13.40625 10.847656 -13.15625 11.671875 -12.65625 C 12.492188 -12.15625 13.128906 -11.394531 13.578125 -10.375 C 14.035156 -9.351562 14.265625 -8.085938 14.265625 -6.578125 C 14.265625 -5.066406 14.023438 -3.800781 13.546875 -2.78125 C 13.066406 -1.769531 12.40625 -1.007812 11.5625 -0.5 C 10.71875 0 9.75 0.25 8.65625 0.25 C 7.757812 0.25 6.960938 0.09375 6.265625 -0.21875 C 5.578125 -0.53125 4.984375 -1.035156 4.484375 -1.734375 L 4.234375 -1.6875 L 4.234375 5.328125 Z M 8.21875 -1.484375 C 10.882812 -1.484375 12.21875 -3.179688 12.21875 -6.578125 C 12.21875 -9.972656 10.882812 -11.671875 8.21875 -11.671875 C 7.4375 -11.671875 6.75 -11.488281 6.15625 -11.125 C 5.5625 -10.769531 5.09375 -10.210938 4.75 -9.453125 C 4.40625 -8.691406 4.234375 -7.734375 4.234375 -6.578125 C 4.234375 -5.421875 4.40625 -4.460938 4.75 -3.703125 C 5.09375 -2.941406 5.5625 -2.378906 6.15625 -2.015625 C 6.75 -1.660156 7.4375 -1.484375 8.21875 -1.484375 Z M 8.21875 -1.484375 "/></g></g><g style="fill:#737373;fill-opacity:1;"><g transform="translate(258.716528, 246.353317)"><path style="stroke:none" d="M 2.296875 0 L 2.296875 -18.453125 L 4.234375 -18.453125 L 4.234375 -11.28125 L 4.484375 -11.234375 C 5.421875 -12.679688 6.78125 -13.40625 8.5625 -13.40625 C 10.144531 -13.40625 11.289062 -13 12 -12.1875 C 12.707031 -11.382812 13.0625 -10.144531 13.0625 -8.46875 L 13.0625 0 L 11.125 0 L 11.125 -8.421875 C 11.125 -9.222656 11.019531 -9.863281 10.8125 -10.34375 C 10.613281 -10.820312 10.300781 -11.171875 9.875 -11.390625 C 9.445312 -11.609375 8.890625 -11.71875 8.203125 -11.71875 C 7.003906 -11.71875 6.039062 -11.332031 5.3125 -10.5625 C 4.59375 -9.789062 4.234375 -8.519531 4.234375 -6.75 L 4.234375 0 Z M 2.296875 0 "/></g></g></g></svg>